<svg width="720" height="180" viewBox="0 0 720 180" fill="none" xmlns="http://www.w3.org/2000/svg">
  <defs>
    <linearGradient id="body" x1="0" y1="0" x2="0" y2="1">
      <stop offset="0%" stop-color="#FFFFFF"/>
      <stop offset="100%" stop-color="#DAE8F8"/>
    </linearGradient>
    <linearGradient id="glass" x1="0" y1="0" x2="0" y2="1">
      <stop offset="0%" stop-color="#4A79C4"/>
      <stop offset="100%" stop-color="#A8D2F0"/>
    </linearGradient>
    <linearGradient id="stripe" x1="0" y1="0" x2="1" y2="0">
      <stop offset="0%" stop-color="#D83535"/>
      <stop offset="50%" stop-color="#1E6FE5"/>
      <stop offset="100%" stop-color="#0C9D66"/>
    </linearGradient>
    <filter id="shadow" x="8" y="22" width="704" height="134" filterUnits="userSpaceOnUse" color-interpolation-filters="sRGB">
      <feDropShadow dx="0" dy="12" stdDeviation="10" flood-color="#5A7BA1" flood-opacity="0.2"/>
    </filter>
  </defs>

  <g filter="url(#shadow)">
    <rect x="36" y="60" width="122" height="58" rx="24" fill="url(#body)" stroke="#85ABD1" stroke-width="2"/>
    <path d="M52 75C52 67.268 58.268 61 66 61H128C141.255 61 152 71.745 152 85V94H52V75Z" fill="url(#glass)"/>
    <rect x="164" y="58" width="156" height="60" rx="18" fill="url(#body)" stroke="#85ABD1" stroke-width="2"/>
    <rect x="326" y="58" width="156" height="60" rx="18" fill="url(#body)" stroke="#85ABD1" stroke-width="2"/>
    <rect x="488" y="58" width="156" height="60" rx="18" fill="url(#body)" stroke="#85ABD1" stroke-width="2"/>
    <path d="M642 58H664C679.464 58 692 70.536 692 86V90C692 105.464 679.464 118 664 118H642V58Z" fill="url(#body)" stroke="#85ABD1" stroke-width="2"/>

    <rect x="184" y="72" width="22" height="24" rx="6" fill="url(#glass)"/>
    <rect x="214" y="72" width="22" height="24" rx="6" fill="url(#glass)"/>
    <rect x="244" y="72" width="22" height="24" rx="6" fill="url(#glass)"/>
    <rect x="280" y="70" width="18" height="30" rx="5" fill="#DDEAF8" stroke="#A8C3DE"/>

    <rect x="346" y="72" width="22" height="24" rx="6" fill="url(#glass)"/>
    <rect x="376" y="72" width="22" height="24" rx="6" fill="url(#glass)"/>
    <rect x="406" y="72" width="22" height="24" rx="6" fill="url(#glass)"/>
    <rect x="442" y="70" width="18" height="30" rx="5" fill="#DDEAF8" stroke="#A8C3DE"/>

    <rect x="508" y="72" width="22" height="24" rx="6" fill="url(#glass)"/>
    <rect x="538" y="72" width="22" height="24" rx="6" fill="url(#glass)"/>
    <rect x="568" y="72" width="22" height="24" rx="6" fill="url(#glass)"/>
    <rect x="604" y="70" width="18" height="30" rx="5" fill="#DDEAF8" stroke="#A8C3DE"/>

    <rect x="36" y="102" width="656" height="6" rx="3" fill="url(#stripe)"/>
    <circle cx="126" cy="103" r="4" fill="#FFE082"/>
    <circle cx="110" cy="103" r="4" fill="#FFE082"/>
    <circle cx="200" cy="124" r="8" fill="#546B84"/>
    <circle cx="362" cy="124" r="8" fill="#546B84"/>
    <circle cx="524" cy="124" r="8" fill="#546B84"/>
    <circle cx="646" cy="124" r="8" fill="#546B84"/>
  </g>
</svg>